<svg width="16" height="16" viewBox="0 0 16 16" fill="none" xmlns="http://www.w3.org/2000/svg">
<path fill-rule="evenodd" clip-rule="evenodd" d="M3.36754 2.04418C2.55086 2.31641 2 3.08069 2 3.94155V8.65928C2 10.8514 3.19544 12.869 5.11811 13.9219L7.03937 14.974C7.63786 15.3017 8.36214 15.3017 8.96063 14.974L10.8819 13.9219C12.8046 12.869 14 10.8514 14 8.65928V3.94155C14 3.08069 13.4491 2.31641 12.6325 2.04418L8.63246 0.710849C8.22192 0.574004 7.77808 0.574004 7.36754 0.710849L3.36754 2.04418ZM10.2888 5.65275C10.6054 5.33259 11.1266 5.3465 11.4257 5.68308C11.6986 5.99029 11.6862 6.45666 11.3972 6.74887L8.05259 10.1311C7.61954 10.5691 6.91225 10.5691 6.4792 10.1311L4.60266 8.23349C4.3137 7.94127 4.30126 7.47491 4.57423 7.1677C4.8733 6.83111 5.39453 6.8172 5.71112 7.13736L7.2659 8.70963L10.2888 5.65275Z" fill="white"/>
</svg>
